{
  "asset": {
    "version": "2.0",
    "generator": "THREE.GLTFExporter"
  },
  "scenes": [
    {
      "nodes": [
        0
      ]
    }
  ],
  "scene": 0,
  "nodes": [
    {
      "children": [
        7
      ],
      "matrix": [
        0.01,
        0,
        0,
        0,
        0,
        0.01,
        0,
        0,
        0,
        0,
        0.01,
        0,
        0,
        0,
        0,
        1
      ]
    },
    {
      "matrix": [
        1.2499999999999998,
        3.0616169978683836e-16,
        -1.2037062152420223e-32,
        0,
        1.3738746635967041e-18,
        -0.005609268993122085,
        -1.2499874143771859,
        0,
        -3.0615861719829944e-16,
        1.2499874143771859,
        -0.005609268993122085,
        0,
        17.634040282227936,
        29.792084297784907,
        6.5895711618221995,
        1
      ],
      "name": "Text",
      "mesh": 0
    },
    {
      "matrix": [
        -1.1538068331954106,
        -1.2886010708387098e-16,
        0,
        0,
        1.4130058451071035e-16,
        -1.0522226259325418,
        0,
        0,
        0,
        0,
        10.567279103530497,
        0,
        2.3881451635665494,
        13.843412395905599,
        -2.8421709430404004e-14,
        0.9999999999999999
      ],
      "name": "Cube 2",
      "mesh": 1
    },
    {
      "matrix": [
        -1.2328349726903576,
        1.6897153003476503e-31,
        -1.5097874031821608e-16,
        0,
        2.0974597657641426e-16,
        1.7842972242565534e-15,
        -1.7127058734195655,
        0,
        -5.8410784034262406e-33,
        -0.21608126315883777,
        -2.537946285462852e-16,
        0,
        2.47069263424982,
        11.639216778451601,
        -1.2025128154456716e-14,
        0.9999999999999999
      ],
      "name": "Cube",
      "mesh": 2
    },
    {
      "matrix": [
        0.8,
        0,
        0,
        0,
        0,
        0.2963537302184043,
        0.7430844276296182,
        0,
        0,
        -0.7430844276296182,
        0.2963537302184043,
        0,
        6,
        -76.00085925789621,
        90.67167748900363,
        1
      ],
      "name": "book_big",
      "children": [
        1,
        2,
        3
      ]
    },
    {
      "matrix": [
        0.7071067811865478,
        -2.7755575615628914e-17,
        -0.7071067811865471,
        0,
        -0.4082482904638629,
        0.8164965809277259,
        -0.4082482904638633,
        0,
        0.5773502691896254,
        0.577350269189626,
        0.577350269189626,
        0,
        574.7425190699643,
        492.04572691633416,
        665.262561582577,
        1
      ],
      "camera": 0
    },
    {
      "matrix": [
        1,
        0,
        0,
        0,
        0,
        1,
        0,
        0,
        0,
        0,
        1,
        0,
        0,
        1,
        0,
        1
      ],
      "name": "Default Ambient Light"
    },
    {
      "name": "Scene",
      "children": [
        4,
        5,
        6
      ]
    }
  ],
  "bufferViews": [
    {
      "buffer": 0,
      "byteOffset": 0,
      "byteLength": 27564,
      "target": 34962,
      "byteStride": 12
    },
    {
      "buffer": 0,
      "byteOffset": 27564,
      "byteLength": 27564,
      "target": 34962,
      "byteStride": 12
    },
    {
      "buffer": 0,
      "byteOffset": 55128,
      "byteLength": 18376,
      "target": 34962,
      "byteStride": 8
    },
    {
      "buffer": 0,
      "byteOffset": 73504,
      "byteLength": 13688,
      "target": 34963
    },
    {
      "buffer": 0,
      "byteOffset": 87192,
      "byteLength": 864,
      "target": 34962,
      "byteStride": 12
    },
    {
      "buffer": 0,
      "byteOffset": 88056,
      "byteLength": 864,
      "target": 34962,
      "byteStride": 12
    },
    {
      "buffer": 0,
      "byteOffset": 88920,
      "byteLength": 432,
      "target": 34963
    },
    {
      "buffer": 0,
      "byteOffset": 89352,
      "byteLength": 1632,
      "target": 34962,
      "byteStride": 12
    },
    {
      "buffer": 0,
      "byteOffset": 90984,
      "byteLength": 1632,
      "target": 34962,
      "byteStride": 12
    },
    {
      "buffer": 0,
      "byteOffset": 92616,
      "byteLength": 816,
      "target": 34963
    }
  ],
  "buffers": [
    {
      "byteLength": 93432,
      "uri": "data:application/octet-stream;base64,"
    }
  ],
  "accessors": [
    {
      "bufferView": 0,
      "componentType": 5126,
      "count": 2297,
      "max": [
        14.354999542236328,
        30.50017738342285,
        0
      ],
      "min": [
        -34.26316452026367,
        -24.0699405670166,
        0
      ],
      "type": "VEC3"
    },
    {
      "bufferView": 1,
      "componentType": 5126,
      "count": 2297,
      "max": [
        0,
        0,
        1
      ],
      "min": [
        0,
        0,
        1
      ],
      "type": "VEC3"
    },
    {
      "bufferView": 2,
      "componentType": 5126,
      "count": 2297,
      "max": [
        1,
        1
      ],
      "min": [
        0,
        0
      ],
      "type": "VEC2"
    },
    {
      "bufferView": 3,
      "componentType": 5123,
      "count": 6843,
      "max": [
        2296
      ],
      "min": [
        0
      ],
      "type": "SCALAR"
    },
    {
      "bufferView": 4,
      "componentType": 5126,
      "count": 72,
      "max": [
        31.645206451416016,
        11.839263916015625,
        4.5
      ],
      "min": [
        -29.054187774658203,
        -11.839263916015625,
        -4.5
      ],
      "type": "VEC3"
    },
    {
      "bufferView": 5,
      "componentType": 5126,
      "count": 72,
      "max": [
        0.9999991655349731,
        1,
        1
      ],
      "min": [
        -1,
        -1,
        -1
      ],
      "type": "VEC3"
    },
    {
      "bufferView": 6,
      "componentType": 5125,
      "count": 108,
      "max": [
        71
      ],
      "min": [
        0
      ],
      "type": "SCALAR"
    },
    {
      "bufferView": 7,
      "componentType": 5126,
      "count": 136,
      "max": [
        32.43716812133789,
        28.499996185302734,
        53.86499786376953
      ],
      "min": [
        -28.429019927978516,
        -28.499996185302734,
        -79.16952514648438
      ],
      "type": "VEC3"
    },
    {
      "bufferView": 8,
      "componentType": 5126,
      "count": 136,
      "max": [
        0.9999844431877136,
        1,
        1
      ],
      "min": [
        -1,
        -1,
        -1
      ],
      "type": "VEC3"
    },
    {
      "bufferView": 9,
      "componentType": 5125,
      "count": 204,
      "max": [
        135
      ],
      "min": [
        0
      ],
      "type": "SCALAR"
    }
  ],
  "meshes": [
    {
      "primitives": [
        {
          "mode": 4,
          "attributes": {
            "POSITION": 0,
            "NORMAL": 1,
            "TEXCOORD_0": 2
          },
          "extras": {
            "parameters": {
              "type": "TextGeometry",
              "width": 68.79,
              "height": 68.8542595904171,
              "depth": 0,
              "horizontalAlign": 1,
              "verticalAlign": 1,
              "fontSize": 15,
              "lineHeight": 1.34,
              "letterSpacing": 0,
              "text": {
                "textValue": "Art  du\nRseau\n-tage"
              },
              "textTransform": 1,
              "font": "Roboto_500",
              "extrudeBevelSize": 0,
              "extrudeBevelSegments": 1
            },
            "type": "TextGeometry"
          },
          "indices": 3
        }
      ]
    },
    {
      "primitives": [
        {
          "mode": 4,
          "attributes": {
            "POSITION": 4,
            "NORMAL": 5
          },
          "extras": {
            "type": "SubdivGeometry",
            "parameters": {
              "width": 60.69939422607422,
              "height": 23.67852783203125,
              "depth": 9
            }
          },
          "indices": 6
        }
      ]
    },
    {
      "primitives": [
        {
          "mode": 4,
          "attributes": {
            "POSITION": 7,
            "NORMAL": 8
          },
          "extras": {
            "type": "SubdivGeometry",
            "parameters": {
              "width": 60.866188049316406,
              "height": 56.99999237060547,
              "depth": 133.0345230102539
            }
          },
          "indices": 9
        }
      ]
    }
  ],
  "cameras": [
    {
      "type": "orthographic",
      "orthographic": {
        "xmag": 7.68,
        "ymag": 3.77,
        "zfar": 100000,
        "znear": 0
      }
    }
  ]
}